<svg xmlns="http://www.w3.org/2000/svg" width="180" height="160.4" viewBox="0 0 180 160.4">
  <title>footlocker-fridge-logo</title>
  <g>
    <g>
      <path d="M862.1,688.5V688a80.1,80.1,0,0,1-.5-8.5,75.7,75.7,0,0,1,7.8-32.3c0.9-1.9,2.2-3.6,2.2-5.9s0.8-2.2,1.2-3.4l0.8,1.3,5.2-6.8a5.9,5.9,0,0,0,0-1,1.8,1.8,0,0,1,.6-1c1.1,0.2,1.6-.7,2.2-1.3a77.9,77.9,0,0,1,21.5-16,77,77,0,0,1,23.7-7.3,79.2,79.2,0,0,1,17.7-.4,71.4,71.4,0,0,1,25.9,7.4,77.8,77.8,0,0,1,16.9,11.5,75.9,75.9,0,0,1,18.3,24.6,81,81,0,0,1,7.1,33.4q-0.1,3.2-.5,6.4h4.6q0.1-1.5.2-3a84,84,0,0,0-.4-14.7,87.9,87.9,0,0,0-3.1-14.2A76.9,76.9,0,0,0,999,629.6a80.7,80.7,0,0,0-21.8-18.6,82.2,82.2,0,0,0-35.8-10.7,69.9,69.9,0,0,0-19.2,1.3,79.8,79.8,0,0,0-25.2,9.4,73.5,73.5,0,0,0-15.1,11.5c-1,1.1-1.7,2.5-2.7,3.6s-2.7,1.2-3.5,2.6a14.4,14.4,0,0,1-1.7,2.2,6,6,0,0,0-1.1,5.2c-2.8.4-3,.4-3.9,1.8a77.9,77.9,0,0,0-11.7,34.6,84.6,84.6,0,0,0,.1,15.8h4.7Z" transform="translate(-847.5 -600.2)" style="fill: #3c433d"/>
      <path d="M988.7,735.6a2.9,2.9,0,0,0-.5,1.5c-0.1,1.9-.8,2.7-2.5,2.7a6.4,6.4,0,0,0-4.1,1.8,70.8,70.8,0,0,1-21.4,10.9,79.7,79.7,0,0,1-14.2,3.1,71.4,71.4,0,0,1-14.4.4,74.9,74.9,0,0,1-25-6.2,75.7,75.7,0,0,1-15.5-9.2l-3.6,3,1.8,1.4c15.9,11.7,33.7,17,53.5,15.6a79.6,79.6,0,0,0,23.1-5.1,71.1,71.1,0,0,0,17.9-9.8c1.4-1.1,3-2.1,2.7-4.5a3.2,3.2,0,0,0,4.2-1.4l0.4-.4a24.9,24.9,0,0,0,4.2-3.6h-6.8Z" transform="translate(-847.5 -600.2)" style="fill: #3c433d"/>
    </g>
    <g>
      <path d="M869.4,677.4a0.8,0.8,0,0,1-.3-0.8,20.2,20.2,0,0,1,.4-2.7l0.5-3.2,3.4,0.6q7.9,1.4,9.6,2.1a2.2,2.2,0,0,0,1.5.3,0.1,0.1,0,0,0,0-.1v-0.2l-0.3-.2a0.9,0.9,0,0,1-.6-0.4q0-.3,1.4-0.1H886a0.4,0.4,0,0,0,.1-0.5,0.6,0.6,0,0,1,.1-0.5h0.5a0.6,0.6,0,0,1,.5.6,29.6,29.6,0,0,1-.2,3.4q-0.3,2.5-.4,3.2a1,1,0,0,1-.5.8,0.7,0.7,0,0,1-.9-0.6,1.5,1.5,0,0,0-1.1-.7l-6.1-1q-6.3-.9-7-0.7l-0.5.3A0.7,0.7,0,0,1,869.4,677.4Zm2.5-8.6a0.7,0.7,0,0,1-.5.7,1.3,1.3,0,0,1-.9-0.1,0.5,0.5,0,0,1-.4-0.4,11.2,11.2,0,0,1,.8-1.9,10.4,10.4,0,0,1,1-1.8,3.5,3.5,0,0,1,2-.3,3,3,0,0,1,1.9.4q0.3,0.3-.6.8a11.6,11.6,0,0,0-2.2,1.4A2.7,2.7,0,0,0,872,668.8Zm3.9-.6q-0.5-.6.8-0.7h2.1q2.8,0.3,3.3.8l0.3,0.4-0.3.2-1.3.2h-2.9l-0.5-.3a0.9,0.9,0,0,0-.8-0.5Z" transform="translate(-847.5 -600.2)" style="fill: #3c433d"/>
      <path d="M874.9,653.9q0.4-1.9.9-1.6a2,2,0,0,1,.4.8,1.9,1.9,0,0,0,1,1l4.4,2.1,5.9,2.5a3.8,3.8,0,0,0,2.1.3,1.1,1.1,0,0,1,1.1.1,0.6,0.6,0,0,1,.1.8,3.5,3.5,0,0,1-.7,1l-0.7.6a1.3,1.3,0,0,0-.7.5,3,3,0,0,1-1.5.7,9.5,9.5,0,0,1-2.4.4,9.3,9.3,0,0,1-3.5-.8,15.3,15.3,0,0,1-3.7-1.9,7.2,7.2,0,0,1-2.3-3A6.2,6.2,0,0,1,874.9,653.9Zm2.7-3.2h-1.3l0.5-.4a1.8,1.8,0,0,1,1.2-.4,0.4,0.4,0,0,1,.3.6A0.6,0.6,0,0,1,877.5,650.6Zm-0.6-1.4q-0.4-.2-0.3-0.3l1.1-.9a7.8,7.8,0,0,1,4-1.6,10.7,10.7,0,0,1,4.7,1.3,11.9,11.9,0,0,1,4,2.8,9,9,0,0,1,1.7,4.1,4,4,0,0,1,0,2,1.2,1.2,0,0,1-.8,1l-0.4-.2-0.7-.6-1.4-1.1-2.7-1.7-4.5-2.4a8.9,8.9,0,0,1-2.1-1.2,3.9,3.9,0,0,0-1.1-.9,1.2,1.2,0,0,0-.9-0.3A0.6,0.6,0,0,1,877,649.2Z" transform="translate(-847.5 -600.2)" style="fill: #3c433d"/>
      <path d="M886.7,635.4q1-1.7,1.3-1.2a2,2,0,0,1,.1.9,1.9,1.9,0,0,0,.6,1.3l3.5,3.4L897,644a3.8,3.8,0,0,0,1.9,1,1.1,1.1,0,0,1,1,.5,0.6,0.6,0,0,1-.1.8l-1,.7-0.9.3a1.3,1.3,0,0,0-.8.3,3,3,0,0,1-1.6.2,9.5,9.5,0,0,1-2.4-.4,9.3,9.3,0,0,1-3.1-1.9,15.3,15.3,0,0,1-2.9-3,7.2,7.2,0,0,1-1.2-3.5A6.2,6.2,0,0,1,886.7,635.4Zm3.6-2.2-0.7-.3-0.5-.3,0.6-.2a1.8,1.8,0,0,1,1.3,0,0.4,0.4,0,0,1,.1.6A0.6,0.6,0,0,1,890.2,633.2Zm-0.1-1.5q-0.3-.3-0.2-0.4l1.3-.5a7.8,7.8,0,0,1,4.3-.2,10.7,10.7,0,0,1,4,2.7,11.9,11.9,0,0,1,2.9,3.9,9,9,0,0,1,.3,4.4,4,4,0,0,1-.6,1.9,1.2,1.2,0,0,1-1,.7l-0.3-.3-0.4-.8-1-1.5-2-2.5-3.4-3.7a8.9,8.9,0,0,1-1.6-1.8,3.9,3.9,0,0,0-.7-1.2,1.2,1.2,0,0,0-.8-0.6A0.6,0.6,0,0,1,890.2,631.7Z" transform="translate(-847.5 -600.2)" style="fill: #3c433d"/>
      <path d="M899.3,623.6a1.1,1.1,0,0,1,.9-0.5h1.3a0.6,0.6,0,0,1,.5.5,2.9,2.9,0,0,1,.2.9q0,0.4.2,1.1a3.7,3.7,0,0,0,.3,1.1,1.3,1.3,0,0,1,.1,1.1,0.8,0.8,0,0,1-.7.6,0.8,0.8,0,0,1-.7-0.4l-1-1.8A7.5,7.5,0,0,1,899.3,623.6Zm5.7-3.6,2.2-1.3a0.8,0.8,0,0,1,.7.4,9.4,9.4,0,0,1,1,1.6l1.1,2.1,1.1,2.4,0.9,1.9,0.8,1.8,0.2,0.6,0.5,1.2q0.3,0.6.6,0.4t0.9,0.9a2.5,2.5,0,0,0,.6.8,0.7,0.7,0,0,0,.6-0.3,0.6,0.6,0,0,1,.7-0.2,1.1,1.1,0,0,1,.2.9,0.3,0.3,0,0,1-.1.3h-0.5a2,2,0,0,0-1.6.7,24.6,24.6,0,0,1-3,2.1,3.6,3.6,0,0,1-1.9.7q-1.1-.2-0.2-1.2l0.5-.6-7.2-14Zm4.1-2.3,0.3-.2,0.6-.2,0.9-.4a0.9,0.9,0,0,1,1.2,0,5.2,5.2,0,0,1,.7,2.1q0.6,2.9-.9,1.3a2.8,2.8,0,0,0-1.4-.9,1.9,1.9,0,0,1-1-.7A1.1,1.1,0,0,1,909.1,617.8Zm4.8,3.8a0.3,0.3,0,0,1,.1-0.4h0.3a0.4,0.4,0,0,1-.2.5C914,621.7,913.9,621.7,913.8,621.5Z" transform="translate(-847.5 -600.2)" style="fill: #3c433d"/>
      <path d="M918.5,614.2l3.5-.9a11.7,11.7,0,0,1,4.2-.4,0.7,0.7,0,0,1,.5.4l-0.5.8-0.7.8,0.9,5.5q0.9,5.4,1,7.1a3.9,3.9,0,0,1-.3,2.4l-0.4.4h-0.3l-0.5-.2H925a3.2,3.2,0,0,1-1.8-.4q-0.6-.6-1.5-4.8l-0.5-2.3a45.1,45.1,0,0,0-1.7-6.7l-0.6-.4a1.2,1.2,0,0,1-.8-0.7A0.5,0.5,0,0,1,918.5,614.2Zm3,17.3q-0.3.1-.4-0.4t0.2-.5,0.4,0.4T921.5,631.5Zm0.9-.6a2.8,2.8,0,0,1,1.5-.4q0.8,0,.9.4t-1.1.5a1.9,1.9,0,0,1-1.4,0Q922.1,631.1,922.4,630.9Zm9.3-6.3q0.6-1.9,1.3-.2l0.5,1.5q0.7,2.3.2,3.2t-2.2.5a1.1,1.1,0,0,1-.8-0.4,0.6,0.6,0,0,1-.1-0.6l0.4-.7,0.4-.9a1.5,1.5,0,0,0,.1-0.8A3.4,3.4,0,0,1,931.7,624.6Z" transform="translate(-847.5 -600.2)" style="fill: #3c433d"/>
      <path d="M942.2,613q2-.2,1.8.3l-0.6.6a1.9,1.9,0,0,0-.6,1.2q-0.2.9-.5,4.9t-0.4,6.4a3.8,3.8,0,0,0,.4,2.1,1.1,1.1,0,0,1,.2,1.1,0.6,0.6,0,0,1-.7.4l-1.2-.3-0.8-.5a1.3,1.3,0,0,0-.7-0.5,3,3,0,0,1-1.1-1.2,9.5,9.5,0,0,1-1.2-2.2,9.3,9.3,0,0,1-.4-3.6,15.3,15.3,0,0,1,.6-4.2,7.2,7.2,0,0,1,2.1-3.1A6.2,6.2,0,0,1,942.2,613Zm5.1,0.5c0-.3.1-0.4,0.2-0.4l1.2,0.8a7.8,7.8,0,0,1,2.8,3.3,10.7,10.7,0,0,1,.3,4.9,11.9,11.9,0,0,1-1.3,4.7,9,9,0,0,1-3.3,2.9,4,4,0,0,1-1.9.6,1.2,1.2,0,0,1-1.2-.4,0.6,0.6,0,0,1,0-.4l0.3-.8,0.6-1.7q0.3-.9.7-3.1t0.9-5a8.9,8.9,0,0,1,.5-2.4,3.9,3.9,0,0,0,.5-1.3,1.2,1.2,0,0,0,0-1A0.6,0.6,0,0,1,947.3,613.5Zm-1.1,1-0.2-.8q-0.2-.5-0.1-0.5l0.5,0.4a1.8,1.8,0,0,1,.7,1,0.4,0.4,0,0,1-.4.5A0.6,0.6,0,0,1,946.2,614.5Z" transform="translate(-847.5 -600.2)" style="fill: #3c433d"/>
      <path d="M960,628.2q-1.2,3-1.4,3.8a2.1,2.1,0,0,0,.1,1.4,1.3,1.3,0,0,1,.1,1.4,1.1,1.1,0,0,1-1.3-.1,5.4,5.4,0,0,1-1.8-1.2,6.2,6.2,0,0,1-1.1-1.8,8.5,8.5,0,0,1-.6-2.7,10,10,0,0,1,.5-3.1,12.1,12.1,0,0,1,1.8-3.8,8.4,8.4,0,0,1,2.3-2.3,6.6,6.6,0,0,1,2.9-.9,3.5,3.5,0,0,0,1.9-.4q0.1-.3.3,0t-1,2.8Q961.8,623.9,960,628.2Zm1.8,7a9.5,9.5,0,0,0,2-1.1l1.5-1a0.6,0.6,0,0,1,.8-0.1,0.8,0.8,0,0,1,0,.9,2.8,2.8,0,0,1-.9,1.2,5.5,5.5,0,0,1-2.3,1q-1.5.4-1.9,0t-0.1-.4Zm7.3-14.1a1.3,1.3,0,0,0,1.2.1,1,1,0,0,1,.9,0,0.7,0.7,0,0,1,.1.8,17.5,17.5,0,0,1-.9,2.4q-1.2,2.8-1.7,3.1t-0.7-1.3a6.8,6.8,0,0,1,.2-1.1,8.3,8.3,0,0,0,.2-2.6q-0.4-1.4.2-1.5Z" transform="translate(-847.5 -600.2)" style="fill: #3c433d"/>
      <path d="M967.1,637.9a2.3,2.3,0,0,1,1.3,1.4q0.3,0.7-.3.4l-0.7-.5q-1-.9-0.8-1.3h0.4Zm11.1-13,1.3,1.1,2.5,2.3a5.1,5.1,0,0,1,1.4,1.9,0.8,0.8,0,0,1,0,.6h-0.7a1.5,1.5,0,0,0-1,.2l-1.7,1.6a14.6,14.6,0,0,1-1.9,1.8l-0.9.5a0.9,0.9,0,0,0-.6.4,7.7,7.7,0,0,0-1,1.5,7.7,7.7,0,0,1-1.4,1.9,4.9,4.9,0,0,0-1.3,1,3.7,3.7,0,0,0-.9,1.2,1,1,0,0,1-.4.5H971a4.1,4.1,0,0,1-1.5-1.4,5.6,5.6,0,0,1-1-1.9,1.4,1.4,0,0,1,.2-1.1l2.3-2.9,3-3.5,2.8-3.4a2.2,2.2,0,0,0,.5-1.3,1.3,1.3,0,0,1,.2-1A0.6,0.6,0,0,1,978.2,624.9Zm7.3,7.1a5.7,5.7,0,0,1,2.5,1.9,7.3,7.3,0,0,1,1.5,2q0,0.3-.8.5a1.2,1.2,0,0,1-1.1-.2,4,4,0,0,0-2.1-.1,6.2,6.2,0,0,0-2.3.4l-0.6.5-0.2.6-0.5,1.1q-1.6,2.3-1.5,3a0.9,0.9,0,0,1-.4.9,6.9,6.9,0,0,0-1.3,1.6,2.2,2.2,0,0,0-.6,1.3q0.2,0.2.9-.9t0.6-.4a1.8,1.8,0,0,1-.3,1.4,2.1,2.1,0,0,1-1,1.2,0.3,0.3,0,0,0-.3.3l0.3,0.4q0.6,0.5.3,0.9t-0.5-.1l-0.2-.2-0.2.2-0.2.2-0.2-.2a23.8,23.8,0,0,0-3.2-2.9q-2-1.7-1.6-2.1a1,1,0,0,1,.8-0.3,1,1,0,0,0,.9-0.5l1.4-3.1a8.2,8.2,0,0,1,1.6-2.7,9.9,9.9,0,0,1,3.3-1q3.3-.7,3.7-1.1a2,2,0,0,0,.4-1.6,2.5,2.5,0,0,1,0-.9h0.6Z" transform="translate(-847.5 -600.2)" style="fill: #3c433d"/>
      <path d="M995.3,645.3l1.5,3-3.4,1.9-5.6,2.9-3.3,1.5-1.4.3a2.5,2.5,0,0,1-1.4.1,1.4,1.4,0,0,1-.6-0.5,1.6,1.6,0,0,0-.7-0.6,2.8,2.8,0,0,1-1-1.4,2.9,2.9,0,0,1-.5-1.6q0-.3.7,0a2.9,2.9,0,0,0,1.6-.4l5.1-2.7,6.1-3.3,0.2-1q0.2-1,.7-1T995.3,645.3Zm-13.2,10.8a0.3,0.3,0,1,1,.4.1A0.3,0.3,0,0,1,982.2,656.2Zm5.5,3q1.9,0.1,1.2.9l-1.9,1.2-2.2,1.2-0.7-1.2a3,3,0,0,1-.6-1.8,0.7,0.7,0,0,1,.2-0.6l1,0.2,1.3,0.2h1.7Zm4.9-4.9q2.5-.6,1,0.5l-2.3,1.4-2.3,1.2q-0.6.2-.7,0a1,1,0,0,1,.5-1l1.3-1.3,0.5-.4h1.1Zm4.8-4.5a0.6,0.6,0,0,1,.7.4,9.4,9.4,0,0,1,.5,2,3.6,3.6,0,0,1-.1,2.4,3.8,3.8,0,0,1-1.7,1.2q-1.2.6-1.4,0.2a0.7,0.7,0,0,1,0-.7l0.5-.7a3,3,0,0,0,.6-1.1,4.1,4.1,0,0,0,.2-1.6,4.6,4.6,0,0,1,0-1.6A0.7,0.7,0,0,1,997.3,649.7Z" transform="translate(-847.5 -600.2)" style="fill: #3c433d"/>
      <path d="M989.8,668.5a1,1,0,0,0,.8.3,1,1,0,0,1,.8.3q0,0.2-.4.3l-1,.2h-1.5a1.4,1.4,0,0,0-.4.6q-0.2.6-.1,0.6c0.2-.2.3-0.1,0.4,0.1s-0.1.3-.5,0.3h-0.4v-1.7l-0.2-.9-0.3-1.2-0.4-1.6a14.2,14.2,0,0,1-.4-1.9,0.7,0.7,0,0,1,.3-0.6,0.7,0.7,0,0,1,1,.3,1.5,1.5,0,0,0,1.3.3l6.1-1,5.9-1.2a2.6,2.6,0,0,0,1.4-.8,1,1,0,0,1,.9-0.6q0.4,0.1.8,3.4l0.5,3.3-1.8.2-2.7.3-5.4.6a17.6,17.6,0,0,1-3.5.2Q989.8,668.3,989.8,668.5Zm13.1,2.3a1.5,1.5,0,0,1,1.4-.5c0.5,0,.8.1,0.8,0.3h0a16.7,16.7,0,0,0-.5,1.8,7.2,7.2,0,0,1-.6,1.8,3.2,3.2,0,0,1-1,1,3.9,3.9,0,0,1-3.1.6,3.3,3.3,0,0,1-2.3-2,3.1,3.1,0,0,0-.6-1,1.1,1.1,0,0,0-.8-0.2q-0.6,0-.7.3a3.1,3.1,0,0,0,.6,1.2,1.7,1.7,0,0,1-.3,1.5,3.4,3.4,0,0,1-1.5,1.4,2.1,2.1,0,0,1-1.7.2,0.8,0.8,0,0,0-1,.2,1,1,0,0,0,0,1.1q0.4,0.9-.4,1a2.5,2.5,0,0,1-2-1l-0.4-.5a6.5,6.5,0,0,1-.6-4.1,2.4,2.4,0,0,1,1.7-1.5l3-.8a5.2,5.2,0,0,0,2.3-.9l0.8-.6,0.7,0.2a4.3,4.3,0,0,0,1.9.6,2.3,2.3,0,0,0,1.2-.2,0.8,0.8,0,0,1,.8,0,3.4,3.4,0,0,0,1.4.2A1.4,1.4,0,0,0,1002.9,670.8Zm0.7-2.3q0.3,0,.3.4a1.5,1.5,0,0,1-.6,1.1q-0.7.7-.9,0.5t0.3-1A1.9,1.9,0,0,1,1003.6,668.5Z" transform="translate(-847.5 -600.2)" style="fill: #3c433d"/>
    </g>
    <g>
      <path d="M852.7,728.7l0.4-.5h0.1A1.7,1.7,0,0,0,852.7,728.7Zm15.3-.9H868l0.2,0.3v-0.2Zm9.7-25.3c-0.2-2.2-.6-3.4-1.1-3.8a20,20,0,0,0-3.7-1.4,21.8,21.8,0,0,0-3.9-1,0.9,0.9,0,0,0-.7.9,2.5,2.5,0,0,0,.1,1.7,1.4,1.4,0,0,0,1.4.9c0.6,0,1.5.6,2.8,1.7a22,22,0,0,1,3.2,3.8c0.7,1,1.3,1.4,1.6,1S878,704.7,877.8,702.5Zm-3.9,10.1a32,32,0,0,0-.3-4.1q-0.4-2.5-1.5-1.4a3.1,3.1,0,0,0-.3,1.8,1.7,1.7,0,0,1-.7,1.7,1.5,1.5,0,0,0-.4,1,6,6,0,0,0,0,1.6,17.6,17.6,0,0,0,.3,2c0.2,0.8.3,1.4,0.5,2l0.7,2.4c0.1,0.3.2,0.5,0.4,0.5a1.8,1.8,0,0,0,.7-0.8Q874,718,873.9,712.6Z" transform="translate(-847.5 -600.2)" style="fill: #3c433d"/>
      <path d="M873.8,737.7a7.9,7.9,0,0,1-.5-0.6,7.4,7.4,0,0,1,0-.9v-0.4l-0.4-.8v-0.2a20.9,20.9,0,0,0-2-4,6,6,0,0,0-1.7-2.1l-0.9-.8-0.2-.3v-0.5c-0.3-.7-0.8-1.4-1-2.1a30.3,30.3,0,0,1-1.5-4.4,34.3,34.3,0,0,1-.4-5.1q0.3-4.7.5-12.2l0.2-6.7-6.3-.2a38.5,38.5,0,0,0-5.3,0,1.6,1.6,0,0,0-1.4.8c-0.3.7,0,1.3,0.9,1.8a1.5,1.5,0,0,1,.7.8q0.5,1.2.5,13.5,0,10-.2,11.9a5,5,0,0,1-.1.8,2.4,2.4,0,0,1-.9,1.6l-0.4.3h-0.1l-0.4.5c-1,1.2-2.4,2.6-2.4,4.1s-0.9,1-1.2,1.5a11.4,11.4,0,0,0-1.6,4.8,9,9,0,0,0-.1,2.5,0.7,0.7,0,0,0,.5.5,1.7,1.7,0,0,1-.1,1,1.6,1.6,0,0,0-.1,1H848a4.6,4.6,0,0,1,.5.9v0.4c0.6,1.7,2.8,2.3,4.4,2.4H862a6.7,6.7,0,0,1,1.1-.4,2.9,2.9,0,0,1,1,.3,10.2,10.2,0,0,0,3.1.1,8.7,8.7,0,0,0,4.3-.8,3.7,3.7,0,0,0,2.3-2.6C874.1,742.4,874.7,739.6,873.8,737.7Zm-6.5,7.3a51.8,51.8,0,0,0-5.5.1c-1.7.2-3.4-.4-5.1,0.2h-0.8a3.7,3.7,0,0,0-1.3-.3c-3.4,0-4.8-2.7-4-5.5a2.5,2.5,0,0,0,.1-0.5c0.1-.7.2-1.4,0.3-2.1v-0.6c0.8-1.1,1.4-2.3,2.2-3.4a2.1,2.1,0,0,1,1.9-1v0.4l1.1,2.2q3.6,0.2,7.1.1h0.6l0.5-.5,1.3-1.9h1a1.3,1.3,0,0,1,.9.4l0.9,1.3a3.3,3.3,0,0,1,.7.9l0.4,0.5h0.2a14.6,14.6,0,0,0,.7,2.8,25.6,25.6,0,0,1,.3,2.8C871.5,743.7,869.7,744.9,867.3,745Z" transform="translate(-847.5 -600.2)" style="fill: #3c433d"/>
      <path d="M892.6,723.6q0.4,0,.9-1.4t0.9-1.4,0.5,0.9a6,6,0,0,1,0,2,6,6,0,0,1-.5,1.8,1.3,1.3,0,0,0-.2,1.1,2.7,2.7,0,0,0,1.1,1q1.2,0.7,1.2.3t0.3-.7,0.5,1.1l-0.2.4-0.2.2h-7.6l-3.1.2-3.7.2a1.3,1.3,0,0,1-1.1-.7q-0.4-1,.9-1.8a3,3,0,0,0,1.1-2.4q0.2-1.9.2-11.8t-0.2-11.6a5,5,0,0,0-1-3q-1.2-1.3-.8-2t6.8-.4l6.5,0.2-0.2,3.5q0,0.6-.3,5.3t-0.7,10.5q-0.5,5.8-.9,6.7T892.6,723.6Zm4.7-26.2q0-.5.8-0.5t1.8,1.5,0.7,1.8-1.8-.9T897.3,697.4Zm4.1,2.1q-0.8-.5-0.5-2.9t0.8-1.4h0.2l3.2,1.5a13.9,13.9,0,0,1,3.1,1.7,6.2,6.2,0,0,1,1.6,2.2,7.5,7.5,0,0,1,.1,6.2,6.4,6.4,0,0,1-4.6,3.6,6.1,6.1,0,0,0-2.1.8,2.1,2.1,0,0,0-.6,1.5q-0.2,1.2.3,1.4a6.1,6.1,0,0,0,2.6-.8q0.9-.3,2.7,1.2a6.6,6.6,0,0,1,2.1,3.4,4.1,4.1,0,0,1-.2,3.4,1.6,1.6,0,0,0,0,2,2,2,0,0,0,2.1.5q1.9-.5,1.8,1.2a4.9,4.9,0,0,1-2.6,3.5l-1.1.6a12.5,12.5,0,0,1-8-.3,4.6,4.6,0,0,1-2.3-3.7,43.4,43.4,0,0,1-.5-6,10,10,0,0,0-.9-4.6,5.3,5.3,0,0,1-.8-1.7,1.9,1.9,0,0,1,.5-1.2,8.2,8.2,0,0,0,1.8-3.3,4.5,4.5,0,0,0,.1-2.4,1.5,1.5,0,0,1,.2-1.5,6.5,6.5,0,0,0,.9-2.6Q901.8,699.9,901.4,699.5Z" transform="translate(-847.5 -600.2)" style="fill: #3c433d"/>
      <path d="M917.4,697.3q0.2-.7,1.6-0.8l6.3-.2q7.5,0,7.9.7t-1.1,2.2l-1.5,1.6v13.4q0,13.4.6,13.7a1.3,1.3,0,0,1,.6,1.2,0.5,0.5,0,0,1-.1.5h-0.7l-0.9-.2-1.3-.2-1.9-.2a13,13,0,0,1-4.9-.8,2.3,2.3,0,0,1-1.2-1.2q-0.4-1.5-1.1-19.3a61.3,61.3,0,0,0-.4-6.5,2.9,2.9,0,0,0-1.1-1.9A1.7,1.7,0,0,1,917.4,697.3Zm2,31.8q0.6-.6,3,0t1.2,0.8-2.1.6q-2.6,0-2.4-1A0.7,0.7,0,0,1,919.4,729.2Z" transform="translate(-847.5 -600.2)" style="fill: #3c433d"/>
      <path d="M936.6,697.2a1.7,1.7,0,0,1,1.4-.7,37.5,37.5,0,0,1,5.1,0l6.3,0.2v7.5q0,14.2-1.1,16a0.8,0.8,0,0,0,.1,1.1l0.9,0.7q0.4,0.2-.4,1.1a3.1,3.1,0,0,0-.9,2.6q0,3.3-2.6,3.3a2.7,2.7,0,0,0-1.9.7q-0.6.6-3,.5t-3-.7,0.4-1.4,0.7-3q0.2-2.5.2-11t-0.2-11.4a4.6,4.6,0,0,0-1.1-3Q936.2,698.1,936.6,697.2Zm12.5,31a0.6,0.6,0,1,1,.6-0.6A0.5,0.5,0,0,1,949.1,728.2Zm6-29.6a2.8,2.8,0,0,1,1.9-.4c1,0,1.4.1,1.4,0.4s0.5,0.7,1.5,1.2,3.7,3.1,4.9,6.1a18.6,18.6,0,0,1,1.5,9.1,21.5,21.5,0,0,1-2.1,8.1,18.4,18.4,0,0,1-5.4,5.8q-3,2.2-5.5,1.5t-0.4-2.5l0.6-.6a3.7,3.7,0,0,0,1.4-2.1,56.2,56.2,0,0,0,.3-6.1q0-5.8.2-7.8a47.8,47.8,0,0,1,.7-4.9q0.6-2.9-.2-3.8a1,1,0,0,1-.2-1.5,1,1,0,0,0,0-1.5Q954.9,698.8,955.1,698.6Z" transform="translate(-847.5 -600.2)" style="fill: #3c433d"/>
      <path d="M976.7,699.3a0.7,0.7,0,0,1,.2-0.8h3.6V703q0.4,24.2,1.7,25.3a1.9,1.9,0,0,1,.7,1.4q0,2.1-3,1.2a13.3,13.3,0,0,1-5.3-3.3,15,15,0,0,1-4.1-5.7,22.9,22.9,0,0,1-1-8.1,21.2,21.2,0,0,1,.9-6.8,13.3,13.3,0,0,1,3.5-4.7Q976.7,699.7,976.7,699.3Zm14.5,13.8q6.4,0,6.7.6a2.3,2.3,0,0,1-.1,1.6q-0.4,1.2-.9,3.3a19,19,0,0,0-.5,4.3q0,3.5-1.3,4.6t-6.1,1.6q-3,.3-3,0a5.2,5.2,0,0,1,1.5-1.7,4.2,4.2,0,0,0,1.1-1.4,1.3,1.3,0,0,0,0-.9l-0.6-1.8a22.2,22.2,0,0,1-.7-3.1,8.2,8.2,0,0,0-.8-2.6,4.4,4.4,0,0,0-1.2-1.5,3.5,3.5,0,0,1-.9-0.9,1.1,1.1,0,0,1-.1-1.1,1.7,1.7,0,0,1,1.5-.8A41.3,41.3,0,0,1,991.2,713.1Zm0.8-16a2.6,2.6,0,0,0,2.3-.4,3,3,0,0,1,1.9-.7q0.6,0.2.6,6.2a45.3,45.3,0,0,1-.2,4.9q-0.2,1.2-.7,1.2t-1.7-1.7a18.5,18.5,0,0,1-1.7-4.3,11.1,11.1,0,0,0-1.4-2.8,15.4,15.4,0,0,0-1.5-1.9q-0.6-.6-0.3-0.7A4.2,4.2,0,0,1,992,697.1Z" transform="translate(-847.5 -600.2)" style="fill: #3c433d"/>
      <path d="M1008.3,696.5l6.4,0.2v7.5q0,5.1-.3,12.1a57.2,57.2,0,0,1-.5,7,8.8,8.8,0,0,0-.8,2.6,4.8,4.8,0,0,1-1.1,2.4,2.8,2.8,0,0,1-1.5.6,3,3,0,0,0-1.6.6q-0.5.5-3.2,0.4t-3.1-.6,0.6-1.2,0.7-3.1q0.2-2.5.2-11.2V700.2l-1.6-1.2q-1.5-1.3-1.1-2T1008.3,696.5Zm6.2,32.3a0.6,0.6,0,1,1,.6-0.6A0.5,0.5,0,0,1,1014.5,728.8Zm3-31.6a1.2,1.2,0,0,1,1.2-.8,18.1,18.1,0,0,1,3.8,1q3.2,1.1,3.9,2.4a7.4,7.4,0,0,1,.6,4q-0.2,2.6-1,2.6a1.3,1.3,0,0,1-1.1-.7,5.8,5.8,0,0,1-.7-1.6,5.8,5.8,0,0,0-1.3-2.1,7.9,7.9,0,0,0-2.6-1.9,8.9,8.9,0,0,1-2.6-1.5A1.4,1.4,0,0,1,1017.5,697.2Zm3.3,12.3q1.3-4.7,1.8-1.2a39.9,39.9,0,0,1,.2,5.2,47.6,47.6,0,0,1-.2,5.1q-0.2,1.2-.7,1.2t-1.3-1.7l-1-3.3a2.6,2.6,0,0,1-.2-1.1,2.5,2.5,0,0,1,.2-0.7l0.5-1.2A20.6,20.6,0,0,0,1020.8,709.5Zm3.9,12.8q2-3.2,2.6-1.2a24.2,24.2,0,0,1,.2,4.3v4.9l-2.6.2a5.8,5.8,0,0,1-3.7-.7,1.4,1.4,0,0,1-.8-1,6.3,6.3,0,0,1,1.2-1.6,5.9,5.9,0,0,0,1.6-2.1A10.9,10.9,0,0,1,1024.7,722.3Z" transform="translate(-847.5 -600.2)" style="fill: #3c433d"/>
    </g>
    <path d="M897.8,688.5h2.5a33.4,33.4,0,0,1-.9-5.1,41.5,41.5,0,0,1-.3-4.4,39.2,39.2,0,0,1,4-16.7,7.2,7.2,0,0,0,1.2-3.1,5.9,5.9,0,0,1,.6-1.7l0.4,0.7,2.7-3.5a3,3,0,0,0,0-.5,0.9,0.9,0,0,1,.3-0.5,1.3,1.3,0,0,0,1.1-.7,40.3,40.3,0,0,1,11.1-8.3,39.8,39.8,0,0,1,12.3-3.8,41,41,0,0,1,9.2-.2,36.9,36.9,0,0,1,13.4,3.8,40.2,40.2,0,0,1,8.7,5.9,39.3,39.3,0,0,1,9.5,12.7,41.9,41.9,0,0,1,3.7,17.3,44.3,44.3,0,0,1-1.1,8.2h2.5a38.1,38.1,0,0,0,.9-6.4,43.5,43.5,0,0,0-.2-7.6,45.5,45.5,0,0,0-1.6-7.4,39.8,39.8,0,0,0-7.5-13.9,41.8,41.8,0,0,0-11.3-9.6,42.5,42.5,0,0,0-18.5-5.6,36.2,36.2,0,0,0-9.9.7,41.3,41.3,0,0,0-13.1,4.9,38,38,0,0,0-7.8,5.9c-0.5.5-.9,1.3-1.4,1.9s-1.4.6-1.8,1.4a7.5,7.5,0,0,1-.9,1.1,3.1,3.1,0,0,0-.6,2.7c-1.4.2-1.5,0.2-2,1a40.3,40.3,0,0,0-6.1,17.9,42,42,0,0,0,.5,11.4Z" transform="translate(-847.5 -600.2)" style="fill: #3c433d"/>
    <path d="M935,666.9h-0.2a0.4,0.4,0,0,1,0-.2H935Z" transform="translate(-847.5 -600.2)" style="fill: #3c433d"/>
    <g>
      <path d="M938.3,665.7h-0.2c-3.5-.2-6.9,0-10.4.1v22.6h1.5c0-.4,0-0.9,0-1.3q0-10.4,0-20.8V666h1.5v0.2q0,10.4,0,20.7c0,0.5,0,.9,0,1.4h1.5v-0.2q0-11,0-21.9V666h1.5v0.3q0,9.3,0,18.7c0,1.1,0,2.3,0,3.4h1.6v-0.2q0-2.1,0-4.1,0-8.9,0-17.8V666h1.5v0.2q0,10.9,0,21.9v0.2h1.6v-0.2Q938.3,676.9,938.3,665.7Z" transform="translate(-847.5 -600.2)" style="fill: #3c433d"/>
      <path d="M939.8,686.7q0-9.4,0-18.9t0-16.5v-0.2h1.6c0,0.4,0,.9,0,1.3q0,3.7,0,7.4,0,14.1,0,28.3v0.2h-1.6C939.8,687.8,939.8,687.3,939.8,686.7Zm0.7-27.5h0.1a0.2,0.2,0,0,0,.1-0.3h-0.3a1.4,1.4,0,0,0-.5.3h0l0.3,0.2Z" transform="translate(-847.5 -600.2)" style="fill: #3c433d"/>
      <path d="M942.8,684.7q0-16.7,0-33.4v-0.2h1.5c0,0.4,0,.8,0,1.2q0,3.5,0,7v0.3a1.3,1.3,0,0,0,0,.3v0.2q0,1.8,0,3.6,0,12.3,0,24.6v0.2h-1.5Q942.8,686.5,942.8,684.7Zm0.6-17.2h0Z" transform="translate(-847.5 -600.2)" style="fill: #3c433d"/>
      <path d="M945.8,685.6q0-13.1,0-26.2,0-4,0-8v-0.2h1.5v37.2h-1.5C945.8,687.4,945.8,686.5,945.8,685.6Zm0.8-16v0.2a0.8,0.8,0,0,0,.2-0.6A0.3,0.3,0,0,0,946.6,669.6Zm0.3,1.2,0.2-.7H947A0.6,0.6,0,0,0,946.9,670.8Zm0-.9h-0.4C946.5,669.9,946.6,670,946.8,669.8Z" transform="translate(-847.5 -600.2)" style="fill: #3c433d"/>
      <path d="M927.7,666.1h10.6V651.1H927.7v14.9Zm10.1-1.6-0.3.4,0.3,0.4h-0.4l-0.3.4V665h0v-0.4l0.3,0.4h0.4Zm-2.5.1h0.4l-0.3.4,0.3,0.4h-0.4l-0.3.4V665h0v-0.4Zm-2.1,0h0.4l-0.3.4,0.3,0.4h-0.4l-0.3.4V665h0v-0.4Zm-2.1,0h0.4l-0.3.4,0.3,0.4H931l-0.3.4V665h0v-0.4Zm-2.1,0h0.4l-0.3.4,0.3,0.4h-0.4l-0.3.4V665h0v-0.4Zm7.9-1.4-0.3.4,0.3,0.4h-0.4l-0.3.4v-0.4h0V663l0.3,0.4h0.4Zm-2.5.1h0.4l-0.3.4,0.3,0.4h-0.4l-0.3.4v-0.4h0V663Zm-2.1,0h0.4l-0.3.4,0.3,0.4h-0.4l-0.3.4v-0.4h0V663Zm-2.1,0h0.4l-0.3.4,0.3,0.4H930l-0.3.4v-0.4h0V663Zm7.9-1.4-0.3.4,0.3,0.4h-0.4l-0.3.4v-0.4h0v-0.4l0.3,0.4h0.4Zm-2.5.1h0.4l-0.3.4,0.3,0.4h-0.4l-0.3.4v-0.4h0v-0.4Zm-2.1,0h0.4l-0.3.4,0.3,0.4h-0.4l-0.3.4v-0.4h0v-0.4Zm-2.1,0h0.4l-0.3.4,0.3,0.4H931l-0.3.4v-0.4h0v-0.4Zm-2.1,0h0.4l-0.3.4,0.3,0.4h-0.4l-0.3.4v-0.4h0v-0.4Zm7.9-1.4-0.3.4,0.3,0.4h-0.4l-0.3.4v-0.4h0v-0.4l0.3,0.4h0.4Zm-2.5.1h0.4l-0.3.4,0.3,0.4h-0.4l-0.3.4v-0.4h0v-0.4Zm-2.1,0h0.4l-0.3.4,0.3,0.4h-0.4l-0.3.4v-0.4h0v-0.4Zm-2.1,0h0.4l-0.3.4,0.3,0.4H930l-0.3.4v-0.4h0v-0.4Zm7.9-1.4-0.3.4,0.3,0.4h-0.4l-0.3.4V660h0v-0.4l0.3,0.4h0.4Zm-2.5.1h0.4l-0.3.4,0.3,0.4h-0.4l-0.3.4V660h0v-0.4Zm-2.1,0h0.4l-0.3.4,0.3,0.4h-0.4l-0.3.4V660h0v-0.4Zm-2.1,0h0.4l-0.3.4,0.3,0.4H931l-0.3.4V660h0v-0.4Zm-2.1,0h0.4l-0.3.4,0.3,0.4h-0.4l-0.3.4V660h0v-0.4Zm7.9-1.4-0.3.4,0.3,0.4h-0.4l-0.3.4v-0.4h0v-0.4l0.3,0.4h0.4Zm-2.5.1h0.4l-0.3.4,0.3,0.4h-0.4l-0.3.4v-0.4h0v-0.4Zm-2.1,0h0.4l-0.3.4,0.3,0.4h-0.4l-0.3.4v-0.4h0v-0.4Zm-2.1,0h0.4l-0.3.4,0.3,0.4H930l-0.3.4v-0.4h0v-0.4Zm7.9-1.4-0.3.4,0.3,0.4h-0.4l-0.3.4v-0.4h0v-0.4l0.3,0.4h0.4Zm-2.5.1h0.4l-0.3.4,0.3,0.4h-0.4l-0.3.4v-0.4h0v-0.4Zm-2.1,0h0.4l-0.3.4,0.3,0.4h-0.4l-0.3.4v-0.4h0v-0.4Zm-2.1,0h0.4l-0.3.4,0.3,0.4H931l-0.3.4v-0.4h0v-0.4Zm-2.1,0h0.4l-0.3.4,0.3,0.4h-0.4l-0.3.4v-0.4h0v-0.4Zm7.9-1.4-0.3.4,0.3,0.4h-0.4l-0.3.4v-0.4h0v-0.4l0.3,0.4h0.4Zm-2.5.1h0.4l-0.3.4,0.3,0.4h-0.4l-0.3.4v-0.4h0v-0.4Zm-2.1,0h0.4l-0.3.4,0.3,0.4h-0.4l-0.3.4v-0.4h0v-0.4Zm-2.1,0h0.4l-0.3.4,0.3,0.4H930l-0.3.4v-0.4h0v-0.4Zm7.8-1.4-0.3.4,0.3,0.4h-0.4l-0.3.4v-0.4h0v-0.4l0.3,0.4h0.4Zm-2.5.1h0.4l-0.3.4,0.3,0.4h-0.4l-0.3.4v-0.4h0v-0.4Zm-2.1,0h0.4l-0.3.4,0.3,0.4h-0.4l-0.3.4v-0.4h0v-0.4Zm-2.1,0h0.4l-0.3.4,0.3,0.4H931l-0.3.4v-0.4h0v-0.4Zm-2.1,0h0.4l-0.3.4,0.3,0.4h-0.4l-0.3.4v-0.4h0v-0.4Zm7.9-1.4-0.3.4,0.3,0.4h-0.4l-0.3.4v-0.4h0v-0.4l0.3,0.4h0.4Zm-2.5.1h0.4l-0.3.4,0.3,0.4h-0.4l-0.3.4v-0.4h0v-0.4Zm-2.1,0h0.4l-0.3.4,0.3,0.4h-0.4l-0.3.4v-0.4h0v-0.4Zm-2.1,0h0.4l-0.3.4,0.3,0.4H930l-0.3.4v-0.4h0v-0.4Zm7.9-1.4-0.3.4,0.3,0.4h-0.4l-0.3.4v-0.4h0v-0.4l0.3,0.4h0.4Zm-2.5.1h0.4l-0.3.4,0.3,0.4h-0.4l-0.3.4v-0.4h0v-0.4Zm-2.1,0h0.4l-0.3.4,0.3,0.4h-0.4l-0.3.4v-0.4h0v-0.4Zm-2.1,0h0.4l-0.3.4,0.3,0.4H931l-0.3.4v-0.4h0v-0.4Zm-2.1,0h0.4l-0.3.4,0.3,0.4h-0.4l-0.3.4v-0.4h0v-0.4Z" transform="translate(-847.5 -600.2)" style="fill: #3c433d"/>
    </g>
  </g>
</svg>
