<svg xmlns="http://www.w3.org/2000/svg" width="180" height="160.4" viewBox="0 0 180 160.4"><title>footlocker-fridge-logo</title><g fill="#3c433d"><path d="M14.6 88.3v-.5a80.1 80.1 0 0 1-.5-8.5A75.7 75.7 0 0 1 21.9 47c.9-1.9 2.2-3.6 2.2-5.9s.8-2.2 1.2-3.4l.8 1.3 5.2-6.8a5.9 5.9 0 0 0 0-1 1.8 1.8 0 0 1 .6-1c1.1.2 1.6-.7 2.2-1.3a77.9 77.9 0 0 1 21.5-16 77 77 0 0 1 23.7-7.3A79.2 79.2 0 0 1 97 5.2a71.4 71.4 0 0 1 25.9 7.4 77.8 77.8 0 0 1 16.9 11.5 75.9 75.9 0 0 1 18.3 24.6 81 81 0 0 1 7.1 33.4q-.1 3.2-.5 6.4h4.6l.2-3a84 84 0 0 0-.4-14.7 87.9 87.9 0 0 0-3.1-14.2 76.9 76.9 0 0 0-14.5-27.2 80.7 80.7 0 0 0-21.8-18.6A82.2 82.2 0 0 0 93.9.1a69.9 69.9 0 0 0-19.2 1.3 79.8 79.8 0 0 0-25.2 9.4 73.5 73.5 0 0 0-15.1 11.5c-1 1.1-1.7 2.5-2.7 3.6s-2.7 1.2-3.5 2.6a14.4 14.4 0 0 1-1.7 2.2 6 6 0 0 0-1.1 5.2c-2.8.4-3 .4-3.9 1.8A77.9 77.9 0 0 0 9.8 72.3a84.6 84.6 0 0 0 .1 15.8h4.7zM141.2 135.4a2.9 2.9 0 0 0-.5 1.5c-.1 1.9-.8 2.7-2.5 2.7a6.4 6.4 0 0 0-4.1 1.8 70.8 70.8 0 0 1-21.4 10.9 79.7 79.7 0 0 1-14.2 3.1 71.4 71.4 0 0 1-14.4.4 74.9 74.9 0 0 1-25-6.2 75.7 75.7 0 0 1-15.5-9.2l-3.6 3 1.8 1.4c15.9 11.7 33.7 17 53.5 15.6a79.6 79.6 0 0 0 23.1-5.1 71.1 71.1 0 0 0 17.9-9.8c1.4-1.1 3-2.1 2.7-4.5a3.2 3.2 0 0 0 4.2-1.4l.4-.4a24.9 24.9 0 0 0 4.2-3.6H141z"/><path d="M21.9 77.2a.8.8 0 0 1-.3-.8 20.2 20.2 0 0 1 .4-2.7l.5-3.2 3.4.6q7.9 1.4 9.6 2.1a2.2 2.2 0 0 0 1.5.3.1.1 0 0 0 0-.1v-.2l-.3-.2a.9.9 0 0 1-.6-.4q0-.3 1.4-.1h1a.4.4 0 0 0 .1-.5.6.6 0 0 1 .1-.5h.5a.6.6 0 0 1 .5.6 29.6 29.6 0 0 1-.2 3.4q-.3 2.5-.4 3.2a1 1 0 0 1-.5.8.7.7 0 0 1-.9-.6 1.5 1.5 0 0 0-1.1-.7l-6.1-1q-6.3-.9-7-.7l-.5.3a.7.7 0 0 1-1.1.4zm2.5-8.6a.7.7 0 0 1-.5.7 1.3 1.3 0 0 1-.9-.1.5.5 0 0 1-.4-.4 11.2 11.2 0 0 1 .8-1.9 10.4 10.4 0 0 1 1-1.8 3.5 3.5 0 0 1 2-.3 3 3 0 0 1 1.9.4q.3.3-.6.8a11.6 11.6 0 0 0-2.2 1.4 2.7 2.7 0 0 0-1 1.2zm3.9-.6q-.5-.6.8-.7h2.1q2.8.3 3.3.8l.3.4-.3.2-1.3.2h-2.9l-.5-.3a.9.9 0 0 0-.8-.5zM27.4 53.7q.4-1.9.9-1.6a2 2 0 0 1 .4.8 1.9 1.9 0 0 0 1 1l4.4 2.1 5.9 2.5a3.8 3.8 0 0 0 2.1.3 1.1 1.1 0 0 1 1.1.1.6.6 0 0 1 .1.8 3.5 3.5 0 0 1-.7 1l-.7.6a1.3 1.3 0 0 0-.7.5 3 3 0 0 1-1.5.7 9.5 9.5 0 0 1-2.4.4 9.3 9.3 0 0 1-3.5-.8 15.3 15.3 0 0 1-3.7-1.9 7.2 7.2 0 0 1-2.3-3 6.2 6.2 0 0 1-.4-3.5zm2.7-3.2h-1.3l.5-.4a1.8 1.8 0 0 1 1.2-.4.4.4 0 0 1 .3.6.6.6 0 0 1-.8.1zm-.6-1.4q-.4-.2-.3-.3l1.1-.9a7.8 7.8 0 0 1 4-1.6 10.7 10.7 0 0 1 4.7 1.3 11.9 11.9 0 0 1 4 2.8 9 9 0 0 1 1.7 4.1 4 4 0 0 1 0 2 1.2 1.2 0 0 1-.8 1l-.4-.2-.7-.6-1.4-1.1-2.7-1.7-4.5-2.4a8.9 8.9 0 0 1-2.1-1.2 3.9 3.9 0 0 0-1.1-.9 1.2 1.2 0 0 0-.9-.3.6.6 0 0 1-.6-.1zM39.2 35.2q1-1.7 1.3-1.2a2 2 0 0 1 .1.9 1.9 1.9 0 0 0 .6 1.3l3.5 3.4 4.8 4.2a3.8 3.8 0 0 0 1.9 1 1.1 1.1 0 0 1 1 .5.6.6 0 0 1-.1.8l-1 .7-.9.3a1.3 1.3 0 0 0-.8.3 3 3 0 0 1-1.6.2 9.5 9.5 0 0 1-2.4-.4 9.3 9.3 0 0 1-3.1-1.9 15.3 15.3 0 0 1-2.9-3 7.2 7.2 0 0 1-1.2-3.5 6.2 6.2 0 0 1 .8-3.6zm3.6-2.2l-.7-.3-.5-.3.6-.2a1.8 1.8 0 0 1 1.3 0 .4.4 0 0 1 .1.6.6.6 0 0 1-.9.2zm-.1-1.5q-.3-.3-.2-.4l1.3-.5a7.8 7.8 0 0 1 4.3-.2 10.7 10.7 0 0 1 4 2.7A11.9 11.9 0 0 1 55 37a9 9 0 0 1 .3 4.4 4 4 0 0 1-.6 1.9 1.2 1.2 0 0 1-1 .7l-.3-.3-.4-.8-1-1.5-2-2.5-3.4-3.7a8.9 8.9 0 0 1-1.6-1.8 3.9 3.9 0 0 0-.7-1.2 1.2 1.2 0 0 0-.8-.6.6.6 0 0 1-.8-.1zM51.8 23.4a1.1 1.1 0 0 1 .9-.5H54a.6.6 0 0 1 .5.5 2.9 2.9 0 0 1 .2.9q0 .4.2 1.1a3.7 3.7 0 0 0 .3 1.1 1.3 1.3 0 0 1 .1 1.1.8.8 0 0 1-.7.6.8.8 0 0 1-.7-.4l-1-1.8a7.5 7.5 0 0 1-1.1-2.6zm5.7-3.6l2.2-1.3a.8.8 0 0 1 .7.4 9.4 9.4 0 0 1 1 1.6l1.1 2.1 1.1 2.4.9 1.9.8 1.8.2.6.5 1.2q.3.6.6.4t.9.9a2.5 2.5 0 0 0 .6.8.7.7 0 0 0 .6-.3.6.6 0 0 1 .7-.2 1.1 1.1 0 0 1 .2.9.3.3 0 0 1-.1.3H69a2 2 0 0 0-1.6.7 24.6 24.6 0 0 1-3 2.1 3.6 3.6 0 0 1-1.9.7q-1.1-.2-.2-1.2l.5-.6-7.2-14zm4.1-2.3l.3-.2.6-.2.9-.4a.9.9 0 0 1 1.2 0 5.2 5.2 0 0 1 .7 2.1q.6 2.9-.9 1.3a2.8 2.8 0 0 0-1.4-.9 1.9 1.9 0 0 1-1-.7 1.1 1.1 0 0 1-.4-.9zm4.8 3.8a.3.3 0 0 1 .1-.4h.3a.4.4 0 0 1-.2.5c-.1.1-.2.1-.3-.1zM71 14l3.5-.9a11.7 11.7 0 0 1 4.2-.4.7.7 0 0 1 .5.4l-.5.8-.7.8.9 5.5q.9 5.4 1 7.1a3.9 3.9 0 0 1-.3 2.4l-.4.4h-.3l-.5-.2h-.9a3.2 3.2 0 0 1-1.8-.4q-.6-.6-1.5-4.8l-.5-2.3a45.1 45.1 0 0 0-1.7-6.7l-.6-.4a1.2 1.2 0 0 1-.8-.7.5.5 0 0 1 .4-.6zm3 17.3q-.3.1-.4-.4t.2-.5.4.4-.2.5zm.9-.6a2.8 2.8 0 0 1 1.5-.4q.8 0 .9.4t-1.1.5a1.9 1.9 0 0 1-1.4 0q-.2-.3.1-.5zm9.3-6.3q.6-1.9 1.3-.2l.5 1.5q.7 2.3.2 3.2t-2.2.5a1.1 1.1 0 0 1-.8-.4.6.6 0 0 1-.1-.6l.4-.7.4-.9a1.5 1.5 0 0 0 .1-.8 3.4 3.4 0 0 1 .2-1.6zM94.7 12.8q2-.2 1.8.3l-.6.6a1.9 1.9 0 0 0-.6 1.2q-.2.9-.5 4.9t-.4 6.4a3.8 3.8 0 0 0 .4 2.1 1.1 1.1 0 0 1 .2 1.1.6.6 0 0 1-.7.4l-1.2-.3-.8-.5a1.3 1.3 0 0 0-.7-.5 3 3 0 0 1-1.1-1.2 9.5 9.5 0 0 1-1.2-2.2 9.3 9.3 0 0 1-.4-3.6 15.3 15.3 0 0 1 .6-4.2 7.2 7.2 0 0 1 2.1-3.1 6.2 6.2 0 0 1 3.1-1.4zm5.1.5c0-.3.1-.4.2-.4l1.2.8A7.8 7.8 0 0 1 104 17a10.7 10.7 0 0 1 .3 4.9 11.9 11.9 0 0 1-1.3 4.7 9 9 0 0 1-3.3 2.9 4 4 0 0 1-1.9.6 1.2 1.2 0 0 1-1.2-.4.6.6 0 0 1 0-.4l.3-.8.6-1.7q.3-.9.7-3.1t.9-5a8.9 8.9 0 0 1 .5-2.4 3.9 3.9 0 0 0 .5-1.3 1.2 1.2 0 0 0 0-1 .6.6 0 0 1-.3-.7zm-1.1 1l-.2-.8q-.2-.5-.1-.5l.5.4a1.8 1.8 0 0 1 .7 1 .4.4 0 0 1-.4.5.6.6 0 0 1-.5-.6zM112.5 28q-1.2 3-1.4 3.8a2.1 2.1 0 0 0 .1 1.4 1.3 1.3 0 0 1 .1 1.4 1.1 1.1 0 0 1-1.3-.1 5.4 5.4 0 0 1-1.8-1.2 6.2 6.2 0 0 1-1.1-1.8 8.5 8.5 0 0 1-.6-2.7 10 10 0 0 1 .5-3.1 12.1 12.1 0 0 1 1.8-3.8 8.4 8.4 0 0 1 2.3-2.3 6.6 6.6 0 0 1 2.9-.9 3.5 3.5 0 0 0 1.9-.4q.1-.3.3 0t-1 2.8q-.9 2.6-2.7 6.9zm1.8 7a9.5 9.5 0 0 0 2-1.1l1.5-1a.6.6 0 0 1 .8-.1.8.8 0 0 1 0 .9 2.8 2.8 0 0 1-.9 1.2 5.5 5.5 0 0 1-2.3 1q-1.5.4-1.9 0t-.1-.4zm7.3-14.1a1.3 1.3 0 0 0 1.2.1 1 1 0 0 1 .9 0 .7.7 0 0 1 .1.8 17.5 17.5 0 0 1-.9 2.4q-1.2 2.8-1.7 3.1t-.7-1.3a6.8 6.8 0 0 1 .2-1.1 8.3 8.3 0 0 0 .2-2.6q-.4-1.4.2-1.5zM119.6 37.7a2.3 2.3 0 0 1 1.3 1.4q.3.7-.3.4l-.7-.5q-1-.9-.8-1.3h.4zm11.1-13l1.3 1.1 2.5 2.3a5.1 5.1 0 0 1 1.4 1.9.8.8 0 0 1 0 .6h-.7a1.5 1.5 0 0 0-1 .2l-1.7 1.6a14.6 14.6 0 0 1-1.9 1.8l-.9.5a.9.9 0 0 0-.6.4 7.7 7.7 0 0 0-1 1.5 7.7 7.7 0 0 1-1.4 1.9 4.9 4.9 0 0 0-1.3 1 3.7 3.7 0 0 0-.9 1.2 1 1 0 0 1-.4.5h-.6a4.1 4.1 0 0 1-1.5-1.4 5.6 5.6 0 0 1-1-1.9 1.4 1.4 0 0 1 .2-1.1l2.3-2.9 3-3.5 2.8-3.4a2.2 2.2 0 0 0 .5-1.3 1.3 1.3 0 0 1 .2-1 .6.6 0 0 1 .7 0zm7.3 7.1a5.7 5.7 0 0 1 2.5 1.9 7.3 7.3 0 0 1 1.5 2q0 .3-.8.5a1.2 1.2 0 0 1-1.1-.2 4 4 0 0 0-2.1-.1 6.2 6.2 0 0 0-2.3.4l-.6.5-.2.6-.5 1.1q-1.6 2.3-1.5 3a.9.9 0 0 1-.4.9 6.9 6.9 0 0 0-1.3 1.6 2.2 2.2 0 0 0-.6 1.3q.2.2.9-.9t.6-.4a1.8 1.8 0 0 1-.3 1.4 2.1 2.1 0 0 1-1 1.2.3.3 0 0 0-.3.3l.3.4q.6.5.3.9t-.5-.1l-.2-.2-.2.2-.2.2-.2-.2a23.8 23.8 0 0 0-3.2-2.9q-2-1.7-1.6-2.1a1 1 0 0 1 .8-.3 1 1 0 0 0 .9-.5l1.4-3.1a8.2 8.2 0 0 1 1.6-2.7 9.9 9.9 0 0 1 3.3-1q3.3-.7 3.7-1.1a2 2 0 0 0 .4-1.6 2.5 2.5 0 0 1 0-.9h.6zM147.8 45.1l1.5 3-3.4 1.9-5.6 2.9-3.3 1.5-1.4.3a2.5 2.5 0 0 1-1.4.1 1.4 1.4 0 0 1-.6-.5 1.6 1.6 0 0 0-.7-.6 2.8 2.8 0 0 1-1-1.4 2.9 2.9 0 0 1-.5-1.6q0-.3.7 0a2.9 2.9 0 0 0 1.6-.4l5.1-2.7 6.1-3.3.2-1q.2-1 .7-1t2 2.8zm-13.2 10.8a.3.3 0 1 1 .4.1.3.3 0 0 1-.3 0zm5.5 3q1.9.1 1.2.9l-1.9 1.2-2.2 1.2-.7-1.2a3 3 0 0 1-.6-1.8.7.7 0 0 1 .2-.6l1 .2 1.3.2h1.7zM145 54q2.5-.6 1 .5l-2.3 1.4-2.3 1.2q-.6.2-.7 0a1 1 0 0 1 .5-1l1.3-1.3.5-.4h1.1zm4.8-4.5a.6.6 0 0 1 .7.4 9.4 9.4 0 0 1 .5 2 3.6 3.6 0 0 1-.1 2.4 3.8 3.8 0 0 1-1.7 1.2q-1.2.6-1.4.2a.7.7 0 0 1 0-.7l.5-.7a3 3 0 0 0 .6-1.1 4.1 4.1 0 0 0 .2-1.6 4.6 4.6 0 0 1 0-1.6.7.7 0 0 1 .7-.5zM142.3 68.3a1 1 0 0 0 .8.3 1 1 0 0 1 .8.3q0 .2-.4.3l-1 .2H141a1.4 1.4 0 0 0-.4.6q-.2.6-.1.6c.2-.2.3-.1.4.1s-.1.3-.5.3h-.4v-1.7l-.2-.9-.3-1.2-.4-1.6a14.2 14.2 0 0 1-.4-1.9.7.7 0 0 1 .3-.6.7.7 0 0 1 1 .3 1.5 1.5 0 0 0 1.3.3l6.1-1 5.9-1.2a2.6 2.6 0 0 0 1.4-.8 1 1 0 0 1 .9-.6q.4.1.8 3.4l.5 3.3-1.8.2-2.7.3-5.4.6a17.6 17.6 0 0 1-3.5.2q-1.2 0-1.2.2zm13.1 2.3a1.5 1.5 0 0 1 1.4-.5c.5 0 .8.1.8.3a16.7 16.7 0 0 0-.5 1.8 7.2 7.2 0 0 1-.6 1.8 3.2 3.2 0 0 1-1 1 3.9 3.9 0 0 1-3.1.6 3.3 3.3 0 0 1-2.3-2 3.1 3.1 0 0 0-.6-1 1.1 1.1 0 0 0-.8-.2q-.6 0-.7.3a3.1 3.1 0 0 0 .6 1.2 1.7 1.7 0 0 1-.3 1.5 3.4 3.4 0 0 1-1.5 1.4 2.1 2.1 0 0 1-1.7.2.8.8 0 0 0-1 .2 1 1 0 0 0 0 1.1q.4.9-.4 1a2.5 2.5 0 0 1-2-1l-.4-.5a6.5 6.5 0 0 1-.6-4.1 2.4 2.4 0 0 1 1.7-1.5l3-.8a5.2 5.2 0 0 0 2.3-.9l.8-.6.7.2a4.3 4.3 0 0 0 1.9.6 2.3 2.3 0 0 0 1.2-.2.8.8 0 0 1 .8 0 3.4 3.4 0 0 0 1.4.2 1.4 1.4 0 0 0 .9-.1zm.7-2.3q.3 0 .3.4a1.5 1.5 0 0 1-.6 1.1q-.7.7-.9.5t.3-1a1.9 1.9 0 0 1 .9-1z"/><g><path d="M5.2 128.5l.4-.5h.1a1.7 1.7 0 0 0-.5.5zm15.3-.9l.2.3v-.2zm9.7-25.3c-.2-2.2-.6-3.4-1.1-3.8a20 20 0 0 0-3.7-1.4 21.8 21.8 0 0 0-3.9-1 .9.9 0 0 0-.7.9 2.5 2.5 0 0 0 .1 1.7 1.4 1.4 0 0 0 1.4.9c.6 0 1.5.6 2.8 1.7a22 22 0 0 1 3.2 3.8c.7 1 1.3 1.4 1.6 1s.6-1.6.4-3.8zm-3.9 10.1a32 32 0 0 0-.3-4.1q-.4-2.5-1.5-1.4a3.1 3.1 0 0 0-.3 1.8 1.7 1.7 0 0 1-.7 1.7 1.5 1.5 0 0 0-.4 1 6 6 0 0 0 0 1.6 17.6 17.6 0 0 0 .3 2c.2.8.3 1.4.5 2l.7 2.4c.1.3.2.5.4.5a1.8 1.8 0 0 0 .7-.8q.8-1.3.7-6.7z"/><path d="M26.3 137.5a7.9 7.9 0 0 1-.5-.6 7.4 7.4 0 0 1 0-.9v-.4l-.4-.8v-.2a20.9 20.9 0 0 0-2-4 6 6 0 0 0-1.7-2.1l-.9-.8-.2-.3v-.5c-.3-.7-.8-1.4-1-2.1a30.3 30.3 0 0 1-1.5-4.4 34.3 34.3 0 0 1-.4-5.1q.3-4.7.5-12.2l.2-6.7-6.3-.2a38.5 38.5 0 0 0-5.3 0 1.6 1.6 0 0 0-1.4.8c-.3.7 0 1.3.9 1.8a1.5 1.5 0 0 1 .7.8q.5 1.2.5 13.5 0 10-.2 11.9a5 5 0 0 1-.1.8 2.4 2.4 0 0 1-.9 1.6l-.4.3h-.1l-.4.5c-1 1.2-2.4 2.6-2.4 4.1s-.9 1-1.2 1.5a11.4 11.4 0 0 0-1.6 4.8 9 9 0 0 0-.1 2.5.7.7 0 0 0 .5.5 1.7 1.7 0 0 1-.1 1 1.6 1.6 0 0 0-.1 1h.1a4.6 4.6 0 0 1 .5.9v.4c.6 1.7 2.8 2.3 4.4 2.4h9.1a6.7 6.7 0 0 1 1.1-.4 2.9 2.9 0 0 1 1 .3 10.2 10.2 0 0 0 3.1.1 8.7 8.7 0 0 0 4.3-.8 3.7 3.7 0 0 0 2.3-2.6c.3-1.7.9-4.5 0-6.4zm-6.5 7.3a51.8 51.8 0 0 0-5.5.1c-1.7.2-3.4-.4-5.1.2h-.8a3.7 3.7 0 0 0-1.3-.3c-3.4 0-4.8-2.7-4-5.5a2.5 2.5 0 0 0 .1-.5l.3-2.1v-.6c.8-1.1 1.4-2.3 2.2-3.4a2.1 2.1 0 0 1 1.9-1v.4l1.1 2.2q3.6.2 7.1.1h.6l.5-.5 1.3-1.9h1a1.3 1.3 0 0 1 .9.4l.9 1.3a3.3 3.3 0 0 1 .7.9l.4.5h.2a14.6 14.6 0 0 0 .7 2.8 25.6 25.6 0 0 1 .3 2.8c.7 2.8-1.1 4-3.5 4.1zM45.1 123.4q.4 0 .9-1.4t.9-1.4.5.9a6 6 0 0 1 0 2 6 6 0 0 1-.5 1.8 1.3 1.3 0 0 0-.2 1.1 2.7 2.7 0 0 0 1.1 1q1.2.7 1.2.3t.3-.7.5 1.1l-.2.4-.2.2h-7.6l-3.1.2-3.7.2a1.3 1.3 0 0 1-1.1-.7q-.4-1 .9-1.8a3 3 0 0 0 1.1-2.4q.2-1.9.2-11.8t-.2-11.6a5 5 0 0 0-1-3q-1.2-1.3-.8-2t6.8-.4l6.5.2-.2 3.5q0 .6-.3 5.3t-.7 10.5q-.5 5.8-.9 6.7t-.2 1.8zm4.7-26.2q0-.5.8-.5t1.8 1.5.7 1.8-1.8-.9-1.5-1.9zm4.1 2.1q-.8-.5-.5-2.9t.8-1.4h.2l3.2 1.5a13.9 13.9 0 0 1 3.1 1.7 6.2 6.2 0 0 1 1.6 2.2 7.5 7.5 0 0 1 .1 6.2 6.4 6.4 0 0 1-4.6 3.6 6.1 6.1 0 0 0-2.1.8 2.1 2.1 0 0 0-.6 1.5q-.2 1.2.3 1.4a6.1 6.1 0 0 0 2.6-.8q.9-.3 2.7 1.2a6.6 6.6 0 0 1 2.1 3.4 4.1 4.1 0 0 1-.2 3.4 1.6 1.6 0 0 0 0 2 2 2 0 0 0 2.1.5q1.9-.5 1.8 1.2a4.9 4.9 0 0 1-2.6 3.5l-1.1.6a12.5 12.5 0 0 1-8-.3 4.6 4.6 0 0 1-2.3-3.7 43.4 43.4 0 0 1-.5-6 10 10 0 0 0-.9-4.6 5.3 5.3 0 0 1-.8-1.7 1.9 1.9 0 0 1 .5-1.2 8.2 8.2 0 0 0 1.8-3.3 4.5 4.5 0 0 0 .1-2.4 1.5 1.5 0 0 1 .2-1.5 6.5 6.5 0 0 0 .9-2.6q.5-1.9.1-2.3zM69.9 97.1q.2-.7 1.6-.8l6.3-.2q7.5 0 7.9.7T84.6 99l-1.5 1.6V114q0 13.4.6 13.7a1.3 1.3 0 0 1 .6 1.2.5.5 0 0 1-.1.5h-.7l-.9-.2-1.3-.2-1.9-.2a13 13 0 0 1-4.9-.8 2.3 2.3 0 0 1-1.2-1.2q-.4-1.5-1.1-19.3a61.3 61.3 0 0 0-.4-6.5 2.9 2.9 0 0 0-1.1-1.9 1.7 1.7 0 0 1-.8-2zm2 31.8q.6-.6 3 0t1.2.8-2.1.6q-2.6 0-2.4-1a.7.7 0 0 1 .3-.3zM89.1 97a1.7 1.7 0 0 1 1.4-.7 37.5 37.5 0 0 1 5.1 0l6.3.2v7.5q0 14.2-1.1 16a.8.8 0 0 0 .1 1.1l.9.7q.4.2-.4 1.1a3.1 3.1 0 0 0-.9 2.6q0 3.3-2.6 3.3a2.7 2.7 0 0 0-1.9.7q-.6.6-3 .5t-3-.7.4-1.4.7-3q.2-2.5.2-11t-.2-11.4a4.6 4.6 0 0 0-1.1-3q-1.3-1.6-.9-2.5zm12.5 31a.6.6 0 1 1 .6-.6.5.5 0 0 1-.6.6zm6-29.6a2.8 2.8 0 0 1 1.9-.4c1 0 1.4.1 1.4.4s.5.7 1.5 1.2 3.7 3.1 4.9 6.1a18.6 18.6 0 0 1 1.5 9.1 21.5 21.5 0 0 1-2.1 8.1 18.4 18.4 0 0 1-5.4 5.8q-3 2.2-5.5 1.5t-.4-2.5l.6-.6a3.7 3.7 0 0 0 1.4-2.1 56.2 56.2 0 0 0 .3-6.1q0-5.8.2-7.8a47.8 47.8 0 0 1 .7-4.9q.6-2.9-.2-3.8a1 1 0 0 1-.2-1.5 1 1 0 0 0 0-1.5q-.8-.8-.6-1zM129.2 99.1a.7.7 0 0 1 .2-.8h3.6v4.5q.4 24.2 1.7 25.3a1.9 1.9 0 0 1 .7 1.4q0 2.1-3 1.2a13.3 13.3 0 0 1-5.3-3.3 15 15 0 0 1-4.1-5.7 22.9 22.9 0 0 1-1-8.1 21.2 21.2 0 0 1 .9-6.8 13.3 13.3 0 0 1 3.5-4.7q2.8-2.6 2.8-3zm14.5 13.8q6.4 0 6.7.6a2.3 2.3 0 0 1-.1 1.6q-.4 1.2-.9 3.3a19 19 0 0 0-.5 4.3q0 3.5-1.3 4.6t-6.1 1.6q-3 .3-3 0a5.2 5.2 0 0 1 1.5-1.7 4.2 4.2 0 0 0 1.1-1.4 1.3 1.3 0 0 0 0-.9l-.6-1.8a22.2 22.2 0 0 1-.7-3.1 8.2 8.2 0 0 0-.8-2.6 4.4 4.4 0 0 0-1.2-1.5 3.5 3.5 0 0 1-.9-.9 1.1 1.1 0 0 1-.1-1.1 1.7 1.7 0 0 1 1.5-.8 41.3 41.3 0 0 1 5.4-.2zm.8-16a2.6 2.6 0 0 0 2.3-.4 3 3 0 0 1 1.9-.7q.6.2.6 6.2a45.3 45.3 0 0 1-.2 4.9q-.2 1.2-.7 1.2t-1.7-1.7a18.5 18.5 0 0 1-1.7-4.3 11.1 11.1 0 0 0-1.4-2.8 15.4 15.4 0 0 0-1.5-1.9q-.6-.6-.3-.7a4.2 4.2 0 0 1 2.7.2zM160.8 96.3l6.4.2v7.5q0 5.1-.3 12.1a57.2 57.2 0 0 1-.5 7 8.8 8.8 0 0 0-.8 2.6 4.8 4.8 0 0 1-1.1 2.4 2.8 2.8 0 0 1-1.5.6 3 3 0 0 0-1.6.6q-.5.5-3.2.4t-3.1-.6.6-1.2.7-3.1q.2-2.5.2-11.2V100l-1.6-1.2q-1.5-1.3-1.1-2t6.9-.5zm6.2 32.3a.6.6 0 1 1 .6-.6.5.5 0 0 1-.6.6zm3-31.6a1.2 1.2 0 0 1 1.2-.8 18.1 18.1 0 0 1 3.8 1q3.2 1.1 3.9 2.4a7.4 7.4 0 0 1 .6 4q-.2 2.6-1 2.6a1.3 1.3 0 0 1-1.1-.7 5.8 5.8 0 0 1-.7-1.6 5.8 5.8 0 0 0-1.3-2.1 7.9 7.9 0 0 0-2.6-1.9 8.9 8.9 0 0 1-2.6-1.5 1.4 1.4 0 0 1-.2-1.4zm3.3 12.3q1.3-4.7 1.8-1.2a39.9 39.9 0 0 1 .2 5.2 47.6 47.6 0 0 1-.2 5.1q-.2 1.2-.7 1.2t-1.3-1.7l-1-3.3a2.6 2.6 0 0 1-.2-1.1 2.5 2.5 0 0 1 .2-.7l.5-1.2a20.6 20.6 0 0 0 .7-2.3zm3.9 12.8q2-3.2 2.6-1.2a24.2 24.2 0 0 1 .2 4.3v4.9l-2.6.2a5.8 5.8 0 0 1-3.7-.7 1.4 1.4 0 0 1-.8-1 6.3 6.3 0 0 1 1.2-1.6 5.9 5.9 0 0 0 1.6-2.1 10.9 10.9 0 0 1 1.5-2.8z"/></g><path d="M50.3 88.3h2.5a33.4 33.4 0 0 1-.9-5.1 41.5 41.5 0 0 1-.3-4.4 39.2 39.2 0 0 1 4-16.7 7.2 7.2 0 0 0 1.2-3.1 5.9 5.9 0 0 1 .6-1.7l.4.7 2.7-3.5a3 3 0 0 0 0-.5.9.9 0 0 1 .3-.5 1.3 1.3 0 0 0 1.1-.7A40.3 40.3 0 0 1 73 44.5a39.8 39.8 0 0 1 12.3-3.8 41 41 0 0 1 9.2-.2 36.9 36.9 0 0 1 13.4 3.8 40.2 40.2 0 0 1 8.7 5.9 39.3 39.3 0 0 1 9.5 12.7 41.9 41.9 0 0 1 3.7 17.3 44.3 44.3 0 0 1-1.1 8.2h2.5a38.1 38.1 0 0 0 .9-6.4 43.5 43.5 0 0 0-.2-7.6 45.5 45.5 0 0 0-1.6-7.4 39.8 39.8 0 0 0-7.5-13.9 41.8 41.8 0 0 0-11.3-9.6A42.5 42.5 0 0 0 93 37.9a36.2 36.2 0 0 0-9.9.7A41.3 41.3 0 0 0 70 43.5a38 38 0 0 0-7.8 5.9c-.5.5-.9 1.3-1.4 1.9s-1.4.6-1.8 1.4a7.5 7.5 0 0 1-.9 1.1 3.1 3.1 0 0 0-.6 2.7c-1.4.2-1.5.2-2 1a40.3 40.3 0 0 0-6.1 17.9 42 42 0 0 0 .5 11.4z"/><path d="M87.5 66.7h-.2a.4.4 0 0 1 0-.2h.2z"/><g><path d="M90.8 65.5h-.2c-3.5-.2-6.9 0-10.4.1v22.6h1.5v-1.3-21.1h1.5V88.1h1.5v-.2V65.8h1.5v22.4h1.6V88v-4.1-18.1h1.5V88.1h1.6v-.2q-.1-11.2-.1-22.4zM92.3 86.5V67.6 50.9h1.6v37.2h-1.6v-1.6zM93 59h.1a.2.2 0 0 0 .1-.3h-.3a1.4 1.4 0 0 0-.5.3l.3.2zM95.3 84.5V50.9h1.5v8.5a1.3 1.3 0 0 0 0 .3v28.6h-1.5v-3.8zm.6-17.2zM98.3 85.4V59.2 51h1.5v37.2h-1.5v-2.8zm.8-16v.2a.8.8 0 0 0 .2-.6.3.3 0 0 0-.2.4zm.3 1.2l.2-.7h-.1a.6.6 0 0 0-.1.7zm0-.9H99s.1.1.3-.1z"/><path d="M80.2 65.9h10.6v-15H80.2v14.9zm10.1-1.6l-.3.4.3.4h-.4l-.3.4v-1.1l.3.4h.4zm-2.5.1h.4l-.3.4.3.4h-.4l-.3.4V64.4zm-2.1 0h.4l-.3.4.3.4h-.4l-.3.4V64.4zm-2.1 0h.4l-.3.4.3.4h-.5l-.3.4V64.4zm-2.1 0h.4l-.3.4.3.4h-.4l-.3.4V64.4zm7.9-1.4l-.3.4.3.4H89l-.3.4v-1.4l.3.4h.4zm-2.5.1h.4l-.3.4.3.4h-.4l-.3.4v-1.5zm-2.1 0h.4l-.3.4.3.4h-.4l-.3.4v-1.5zm-2.1 0h.4l-.3.4.3.4h-.6l-.3.4v-1.5zm7.9-1.4l-.3.4.3.4h-.4l-.3.4v-.8l.3.4h.4zm-2.5.1h.4l-.3.4.3.4h-.4l-.3.4v-.8zm-2.1 0h.4l-.3.4.3.4H86l-.3.4v-.8zm-2.1 0h.4l-.3.4.3.4h-.8l-.3.4v-.8zm-2.1 0h.4l-.3.4.3.4h-.4l-.3.4v-.8zm7.9-1.4l-.3.4.3.4h-.4l-.3.4v-.8l.3.4h.4zm-2.5.1h.4l-.3.4.3.4h-.4l-.3.4v-.8zm-2.1 0h.4l-.3.4.3.4h-.4l-.3.4v-.8zm-2.1 0h.4l-.3.4.3.4h-.9l-.3.4v-.8zm7.9-1.4l-.3.4.3.4h-.4l-.3.4v-.9l.3.4h.4zm-2.5.1h.4l-.3.4.3.4h-.4l-.3.4v-1zm-2.1 0h.4l-.3.4.3.4h-.4l-.3.4v-1zm-2.1 0h.4l-.3.4.3.4h-1.1l-.3.4v-1zm-2.1 0h.4l-.3.4.3.4h-.4l-.3.4v-1zm7.9-1.4l-.3.4.3.4h-.4l-.3.4v-.8l.3.4h.4zm-2.5.1h.4l-.3.4.3.4h-.4l-.3.4v-.8zm-2.1 0h.4l-.3.4.3.4h-.4l-.3.4v-.8zm-2.1 0h.4l-.3.4.3.4h-1.2l-.3.4v-.8zm7.9-1.4l-.3.4.3.4h-.4l-.3.4v-.8l.3.4h.4zm-2.5.1h.4l-.3.4.3.4h-.4l-.3.4V57zm-2.1 0h.4l-.3.4.3.4h-.4l-.3.4V57zm-2.1 0h.4l-.3.4.3.4h-1.4l-.3.4V57zm-2.1 0h.4l-.3.4.3.4h-.4l-.3.4V57zm7.9-1.4l-.3.4.3.4h-.4l-.3.4v-.8l.3.4h.4zm-2.5.1h.4l-.3.4.3.4h-.4l-.3.4v-.8zm-2.1 0h.4l-.3.4.3.4h-.4l-.3.4v-.8zm-2.1 0h.4l-.3.4.3.4h-1.5l-.3.4v-.8zm7.8-1.4l-.3.4.3.4H91l-.3.4v-.8l.3.4h.4zm-2.5.1h.4l-.3.4.3.4h-.4l-.3.4v-.8zm-2.1 0h.4l-.3.4.3.4h-.4l-.3.4v-.8zm-2.1 0h.4l-.3.4.3.4h-1.6l-.3.4v-.8zm-2.1 0h.4l-.3.4.3.4h-.4l-.3.4v-.8zm7.9-1.4l-.3.4.3.4h-.4l-.3.4V53l.3.4h.4zm-2.5.1h.4l-.3.4.3.4H88l-.3.4v-.8zm-2.1 0h.4l-.3.4.3.4h-.4l-.3.4v-.8zm-2.1 0h.4l-.3.4.3.4h-1.7l-.3.4v-.8zm7.9-1.4l-.3.4.3.4h-.4l-.3.4v-.8l.3.4h.4zm-2.5.1h.4l-.3.4.3.4h-.4l-.3.4v-.8zm-2.1 0h.4l-.3.4.3.4h-.4l-.3.4v-.8zm-2.1 0h.4l-.3.4.3.4h-1.9l-.3.4v-.8zm-2.1 0h.4l-.3.4.3.4h-.4l-.3.4v-.8z"/></g></g></svg>